<svg width="120" height="120" viewBox="0 0 120 120" fill="none" xmlns="http://www.w3.org/2000/svg">
  <defs>
    <linearGradient id="handleGrad" x1="30" y1="30" x2="90" y2="90" gradientUnits="userSpaceOnUse">
      <stop offset="0%" stop-color="#1D4758"/>
      <stop offset="100%" stop-color="#2A6F7B"/>
    </linearGradient>
    <linearGradient id="leafGrad" x1="35" y1="20" x2="85" y2="70" gradientUnits="userSpaceOnUse">
      <stop offset="0%" stop-color="#72A965"/>
      <stop offset="100%" stop-color="#3B5F44"/>
    </linearGradient>
    <linearGradient id="bowlGrad" x1="20" y1="75" x2="100" y2="75" gradientUnits="userSpaceOnUse">
      <stop offset="0%" stop-color="#1D3557"/>
      <stop offset="100%" stop-color="#257081"/>
    </linearGradient>
  </defs>
  <circle cx="60" cy="60" r="58" fill="#F9F4E8" stroke="#3B5244" stroke-width="3"/>
  <path d="M27 87C27 75 34 65 45 60C56 55 69 55 80 60C91 65 98 75 98 87" fill="#E5DFD4"/>
  <path d="M32 80C32 74 37 69 43 67C49 65 56 65 62 67C68 69 72 74 72 80" fill="#D7D0C4"/>
  <path d="M43 65C38 58 42 48 49 45C52 43 56 44 58 47C60 44 64 43 68 45C75 48 79 58 74 65C70 71 64 74 58 73C52 72 47 69 43 65Z" fill="url(#leafGrad)"/>
  <path d="M48 53C44 49 47 43 51 41C56 38 62 39 66 43C71 40 76 41 79 45C83 50 80 57 74 60C70 62 64 61 60 58C56 61 50 62 46 60C44 58 43 56 43 53Z" fill="#85C75D"/>
  <path d="M77 54C80 48 87 47 92 52C97 57 96 66 91 70C89 72 86 73 83 73C80 71 78 68 77 64C76 60 76 58 77 54Z" fill="#F13E3D"/>
  <path d="M78 57C80 60 79 65 76 67C74 69 71 69 69 67C66 65 66 61 68 59C70 57 73 57 76 57Z" fill="#fff" opacity="0.9"/>
  <path d="M32 50L15 37" stroke="url(#handleGrad)" stroke-width="10" stroke-linecap="round"/>
  <path d="M20 42L9 32" stroke="url(#handleGrad)" stroke-width="8" stroke-linecap="round" opacity="0.75"/>
  <path d="M26 49C21 44 21 37 26 32" stroke="url(#handleGrad)" stroke-width="10" stroke-linecap="round" opacity="0.9"/>
  <path d="M41 79C51 84 65 84 76 79" stroke="url(#bowlGrad)" stroke-width="10" stroke-linecap="round"/>
  <path d="M36 85C48 90 72 90 84 85" stroke="#fff" stroke-width="4" opacity="0.7"/>
</svg>
